<?xml version="1.0" encoding="iso-8859-1"?>
<!-- Generator: Adobe Illustrator 19.0.0, SVG Export Plug-In . SVG Version: 6.00 Build 0)  -->
<svg version="1.1" id="Layer_1" xmlns="http://www.w3.org/2000/svg" xmlns:xlink="http://www.w3.org/1999/xlink" x="0px" y="0px"
	 viewBox="0 0 512 512" style="enable-background:new 0 0 512 512;" xml:space="preserve">
<g>
	<g>
		<path d="M479.168,113.227c-0.537-1.284-1.319-2.451-2.304-3.435L370.197,3.125c-2.002-1.991-4.707-3.114-7.531-3.125h-192
			C164.776,0,160,4.776,160,10.667V64H42.667C36.776,64,32,68.776,32,74.667v426.667C32,507.224,36.776,512,42.667,512h298.667
			c5.891,0,10.667-4.776,10.667-10.667V448h117.333c5.891,0,10.667-4.776,10.667-10.667v-320
			C479.997,115.923,479.714,114.527,479.168,113.227z M373.333,36.416l70.251,70.251h-70.251V36.416z M330.667,490.667H53.333
			V85.333H224v96c0,5.891,4.776,10.667,10.667,10.667h96V490.667z M245.333,170.667v-70.251l70.251,70.251H245.333z
			 M458.667,426.667H352V181.333c-0.009-2.827-1.132-5.537-3.125-7.541L242.208,67.125c-2.005-1.994-4.714-3.117-7.541-3.125
			h-53.333V21.333H352v96c0,5.891,4.776,10.667,10.667,10.667h96V426.667z"/>
	</g>
</g>
<g>
</g>
<g>
</g>
<g>
</g>
<g>
</g>
<g>
</g>
<g>
</g>
<g>
</g>
<g>
</g>
<g>
</g>
<g>
</g>
<g>
</g>
<g>
</g>
<g>
</g>
<g>
</g>
<g>
</g>
</svg>
