<svg id="Capa_1" enable-background="new 0 0 512 512" height="512" viewBox="0 0 512 512" width="512" xmlns="http://www.w3.org/2000/svg"><path d="m457 30.872h-402c-30.327 0-55 24.673-55 55v264c0 30.327 24.673 55 55 55h129.514c1.581 0 3.084.759 4.023 2.032l47.253 64.063c4.735 6.421 12.026 10.124 20.004 10.161h.12c7.932 0 15.209-3.632 19.979-9.977l48.325-64.284c.939-1.25 2.434-1.996 3.997-1.996h128.785c30.327 0 55-24.673 55-55v-264c0-30.327-24.673-54.999-55-54.999zm25 319c0 2.362-.336 4.645-.951 6.812l-154.105-135.088 155.056-128.678zm-25-289c4.573 0 8.86 1.24 12.551 3.393l-197.543 163.936c-9.252 7.678-22.679 7.678-31.931 0l-197.578-163.965c3.68-2.135 7.949-3.364 12.501-3.364zm-426.049 295.812c-.615-2.167-.951-4.451-.951-6.812v-257.024l155.098 128.711zm269.288 32.156-44.291 58.917-43.268-58.66c-6.568-8.908-17.099-14.226-28.167-14.226h-128.8l152.762-133.911 12.443 10.326c10.177 8.446 22.648 12.667 35.124 12.667 12.472 0 24.948-4.224 35.123-12.667l12.399-10.29 152.721 133.875h-128.07c-10.941.001-21.4 5.222-27.976 13.969z"/></svg>